<?xml version="1.0" standalone="no"?>
<!DOCTYPE svg PUBLIC "-//W3C//DTD SVG 20010904//EN"
 "http://www.w3.org/TR/2001/REC-SVG-20010904/DTD/svg10.dtd">
<svg version="1.0" xmlns="http://www.w3.org/2000/svg"
 width="200.000000pt" height="200.000000pt" viewBox="0 0 200.000000 200.000000"
 preserveAspectRatio="xMidYMid meet">
<metadata>
Created by potrace 1.14, written by Peter Selinger 2001-2017
</metadata>
<g transform="translate(0.000000,200.000000) scale(0.100000,-0.100000)"
fill="#000000" stroke="none">
<path d="M1446 618 c-34 -83 -56 -171 -56 -228 0 -56 32 -184 62 -245 23 -46
41 -55 71 -33 16 12 15 17 -9 68 -36 78 -50 190 -36 290 6 43 16 87 21 97 6
10 17 35 25 55 l14 37 -30 10 c-17 6 -32 11 -33 11 -2 0 -14 -28 -29 -62z"/>
<path d="M1603 670 c-27 -11 -28 -22 -8 -53 23 -35 45 -146 45 -227 0 -81 -22
-192 -45 -227 -22 -33 -18 -50 11 -57 34 -9 36 -6 75 84 37 87 49 205 30 303
-10 58 -66 188 -79 186 -4 0 -17 -4 -29 -9z"/>
<path d="M930 650 c-23 -42 17 -88 66 -76 27 7 43 50 27 75 -6 9 -26 17 -46
19 -28 2 -38 -1 -47 -18z"/>
<path d="M235 523 c-16 -9 -33 -20 -36 -25 -3 -5 -9 0 -12 11 -4 17 -13 21
-46 21 l-41 0 0 -160 0 -160 50 0 49 0 3 112 c3 113 3 113 31 126 49 24 57 6
57 -124 l0 -114 50 0 50 0 0 120 c0 129 -12 180 -48 199 -29 15 -72 13 -107
-6z"/>
<path d="M1160 529 c-36 -14 -60 -49 -60 -87 0 -50 13 -66 78 -96 33 -14 63
-33 66 -41 8 -22 -31 -35 -69 -23 -16 5 -37 12 -45 14 -8 2 -23 -7 -32 -20
-18 -24 -17 -25 14 -48 26 -18 46 -23 96 -23 61 0 65 2 98 37 19 21 34 48 34
62 0 36 -37 75 -96 101 -53 24 -69 47 -38 59 8 3 30 -1 49 -8 31 -13 35 -13
54 8 30 32 26 42 -19 60 -45 18 -92 20 -130 5z"/>
<path d="M460 490 l0 -40 50 0 c28 0 50 -3 50 -7 0 -3 -27 -46 -60 -95 -34
-50 -60 -99 -60 -113 l0 -25 131 0 130 0 -3 38 -3 37 -62 3 c-35 2 -63 7 -63
12 0 5 10 21 23 37 49 60 107 154 107 173 0 19 -6 20 -120 20 l-120 0 0 -40z"/>
<path d="M930 357 c0 -178 -4 -197 -41 -197 -18 0 -29 -19 -29 -51 0 -16 7
-19 49 -19 106 0 114 18 119 258 l4 182 -51 0 -51 0 0 -173z"/>
<path d="M1779 509 c-28 -28 -22 -69 14 -89 24 -13 30 -13 55 0 33 19 41 63
16 91 -22 25 -59 24 -85 -2z"/>
<path d="M770 317 c-31 -16 -40 -76 -15 -101 23 -23 61 -20 79 6 22 32 20 61
-7 86 -27 26 -25 25 -57 9z"/>
<path d="M1786 309 c-34 -27 -33 -51 6 -84 36 -30 32 -50 -14 -73 -19 -9 -25
-18 -21 -33 8 -29 27 -34 60 -14 44 26 66 64 71 121 4 48 2 55 -23 78 -34 31
-45 32 -79 5z"/>
</g>
</svg>
